<svg width="198" height="77" viewBox="0 0 198 77" fill="none" xmlns="http://www.w3.org/2000/svg">
<g clip-path="url(#clip0_23:4986)">
<path d="M166.337 55.3252H55.7972C55.12 55.3252 54.571 55.7113 54.571 56.1876C54.571 56.6639 55.12 57.05 55.7972 57.05H166.337C167.014 57.05 167.563 56.6639 167.563 56.1876C167.563 55.7113 167.014 55.3252 166.337 55.3252Z" fill="#FFB100"/>
<path d="M196.26 61.0605H39.4072C38.4464 61.0605 37.6675 61.8457 37.6675 62.8143C37.6675 63.7828 38.4464 64.568 39.4072 64.568H196.26C197.221 64.568 198 63.7828 198 62.8143C198 61.8457 197.221 61.0605 196.26 61.0605Z" fill="#FFB100"/>
<path d="M147.985 51.0026H68.3812C67.8936 51.0026 67.4984 51.1721 67.4984 51.3812V51.3813C67.4984 51.5904 67.8936 51.76 68.3812 51.76H147.985C148.473 51.76 148.868 51.5904 148.868 51.3813V51.3812C148.868 51.1721 148.473 51.0026 147.985 51.0026Z" fill="#FFB100"/>
<path fill-rule="evenodd" clip-rule="evenodd" d="M96.2565 51.0574C89.9692 46.8819 91.6239 32.7835 101.631 32.6267C108.388 32.5209 111.466 38.6531 111.002 44.0994C110.316 52.1622 102.364 54.7433 96.2565 51.0574ZM87.0365 75.1147L92.8653 75.0491C92.8678 68.0601 92.8601 61.0703 92.8712 54.0814C95.2186 56.8241 99.3449 58.4957 102.938 58.4609C108.234 58.4099 111.417 55.7434 114.281 51.7458C118.921 43.0651 116.752 30.8225 106.698 27.7896C98.8781 25.4302 92.8774 31.8338 92.8774 31.8338L92.809 27.6651L86.9763 27.7227L87.0365 75.1147Z" fill="#3462FF"/>
<path fill-rule="evenodd" clip-rule="evenodd" d="M127.941 51.0574C121.654 46.8819 123.309 32.7835 133.316 32.6267C140.073 32.5209 143.151 38.6531 142.687 44.0994C142.001 52.1622 134.049 54.7433 127.941 51.0574ZM118.721 75.1147L124.55 75.0491C124.553 68.0601 124.545 61.0703 124.556 54.0814C126.903 56.8241 131.03 58.4957 134.623 58.4609C139.919 58.4099 143.102 55.7434 145.966 51.7458C150.606 43.0651 148.437 30.8225 138.383 27.7896C130.563 25.4302 124.562 31.8338 124.562 31.8338L124.494 27.6651L118.661 27.7227L118.721 75.1147Z" fill="#3462FF"/>
<path fill-rule="evenodd" clip-rule="evenodd" d="M66.1475 52.633C63.9001 51.9053 62.1962 50.2105 61.1583 48.1129C59.0382 43.8276 59.7467 37.091 63.8133 34.1787C68.0586 31.1385 74.1175 32.2992 76.753 36.8519C81.2265 44.5793 75.6313 55.7042 66.1475 52.633V52.633ZM67.4485 58.5095C71.9365 58.5425 74.9549 56.5126 77.9273 53.4485C77.9876 54.9544 77.9655 56.4814 78.0586 57.9735L83.8514 57.972L83.9112 27.7471L78.0789 27.6894L78.0101 31.5101C76.4483 29.5417 72.5416 24.8071 63.9118 27.8427C58.1614 29.8654 53.1448 35.6742 54.1759 45.0394C54.9387 51.969 60.1861 58.456 67.4485 58.5095V58.5095Z" fill="#3462FF"/>
<path fill-rule="evenodd" clip-rule="evenodd" d="M172.616 61.2127C172.52 61.6349 172.095 62.7117 171.911 63.1124L165.977 77.0002H172.201L191.746 28.2427L184.884 28.2381L176.168 52.1663C175.756 51.7971 166.443 29.3513 165.987 28.2507L159.271 28.2365C163.482 37.7476 167.733 47.2911 171.794 56.8671C172.518 58.5741 172.963 59.9241 172.616 61.2127V61.2127Z" fill="#3462FF"/>
<path fill-rule="evenodd" clip-rule="evenodd" d="M34.2515 23.5218L45.4446 23.5895L45.4703 57.9661H51.586L51.6054 23.5845L68.8563 23.5797V17.6964L34.3085 17.6344L34.2515 23.5218Z" fill="#3462FF"/>
<path fill-rule="evenodd" clip-rule="evenodd" d="M151.134 57.9695L156.898 57.9693L156.905 15.2762H151.073L151.134 57.9695Z" fill="#3462FF"/>
<path fill-rule="evenodd" clip-rule="evenodd" d="M13.1624 12.5442C15.6686 11.7815 16.01 14.4266 15.9704 16.3709L15.9691 30.0191C15.9795 31.3239 15.303 35.6816 17.5001 35.102C18.9607 34.7168 18.4727 30.385 18.4407 29.0154C18.3998 27.2684 18.6873 24.4006 21.3045 25.6079C22.8235 26.3088 22.58 29.7168 22.5953 31.1725C22.6035 31.9497 22.4013 33.825 22.599 34.4416C22.848 35.2182 23.8804 35.3804 24.4283 34.8873C25.6366 33.7997 24.0461 30.0979 25.5568 29.0274C26.2507 28.5356 27.6133 28.5428 28.2663 29.1084C29.7046 30.3542 27.9276 37.1374 29.4379 38.1349C31.9001 39.761 31.2424 34.5812 31.2937 33.6529C31.4402 31.0101 34.5721 31.5357 35.0059 33.1407C35.2959 34.2136 35.1209 38.4413 35.1209 39.8386C35.1209 42.846 35.494 50.5454 34.6184 52.9794C33.2926 56.6654 30.184 58.4975 26.3822 58.4905C23.8751 58.4859 14.5536 58.6003 12.8684 58.4422C9.33895 58.111 6.38053 55.3554 5.67292 51.8819C5.00966 48.6259 5.43313 42.1216 5.39522 38.5001C5.37551 36.606 5.64391 33.8847 8.36485 34.8173C10.4399 35.5283 8.80009 42.2753 9.52235 44.0318C9.83988 44.8039 10.7494 45.0561 11.3724 44.5004C12.0101 43.9318 11.8217 20.3411 11.8425 18.0373C11.8579 16.3422 11.1696 13.1296 13.1624 12.5442ZM9.36509 32.5157C7.38296 32.01 5.80089 31.9501 4.28124 33.5489C2.69467 35.2179 2.92994 36.8392 2.92666 39.0071C2.91379 47.4202 1.20773 56.0633 9.19633 59.9803C12.3425 61.523 18.1577 60.9752 21.7477 60.9752C25.911 60.9752 29.7067 61.575 33.2614 58.9342C36.1864 56.7611 37.775 53.5036 37.7708 49.8327C37.7656 45.2815 37.7675 40.7287 37.7628 36.1769C37.7606 34.0896 37.9974 32.3192 36.4642 30.6622C35.1653 29.2583 33.0299 29.0546 31.3236 29.6865C29.871 26.5227 28.6058 25.5917 24.7195 26.5242C24.6753 24.4202 21.467 21.8193 18.4456 23.3621C18.4456 20.9542 18.8529 14.2817 18.013 12.481C16.0685 8.31278 9.35646 8.63494 9.36495 15.5398L9.36509 32.5157Z" fill="#646363"/>
<path fill-rule="evenodd" clip-rule="evenodd" d="M0.722273 13.3278C-0.010795 13.6485 -0.220067 14.4488 0.253087 15.1269C0.74335 15.8295 1.7507 15.6641 2.53688 15.6588C3.73694 15.6508 7.08228 15.9352 7.94948 15.4538C8.56908 15.1098 8.80025 14.3837 8.42304 13.7334C7.90267 12.8361 5.00311 13.1616 3.36356 13.1614L0.722273 13.3278V13.3278Z" fill="#FFB100"/>
<path fill-rule="evenodd" clip-rule="evenodd" d="M20.8623 13.3284C20.0938 13.6625 19.8105 14.125 20.2046 14.9756C20.6036 15.8363 21.4934 15.6681 22.3457 15.6606C24.2698 15.6438 29.5738 16.4484 28.3089 13.8245C27.8095 12.7885 25.4938 13.1623 23.5037 13.162L21.2251 13.1951C20.6261 13.3197 21.1652 13.1966 20.8623 13.3284V13.3284Z" fill="#FFB100"/>
<path fill-rule="evenodd" clip-rule="evenodd" d="M23.0138 4.00816C22.1314 4.38964 18.0674 8.61564 17.9518 9.07453C17.705 10.0541 18.7356 10.8245 19.5743 10.5381C19.938 10.4139 24.4036 6.11495 24.5822 5.40689C24.7677 4.67055 24.2042 4.07535 23.7255 3.93186C22.9689 3.70518 23.1564 3.94648 23.0138 4.00816Z" fill="#FFB100"/>
<path fill-rule="evenodd" clip-rule="evenodd" d="M13.7669 0.178964C12.7375 0.627364 13.1062 3.02486 13.1061 5.00541C13.1061 5.52141 13.0421 7.25266 13.1415 7.63276C13.339 8.38759 14.3128 8.56488 14.8491 8.27377C15.9848 7.65746 15.5821 4.78659 15.5824 3.50748C15.5828 2.22795 15.9179 -0.758125 13.7669 0.178964Z" fill="#FFB100"/>
<path fill-rule="evenodd" clip-rule="evenodd" d="M4.68191 4.00533C2.52774 4.94007 5.07486 6.81521 5.96095 7.70843C6.52101 8.273 7.05247 8.8075 7.61185 9.37276C8.24391 10.0114 8.7777 10.8356 9.66652 10.5405C10.6275 10.2214 10.6643 9.05791 10.093 8.37068L6.78722 5.04479C5.78411 4.02754 5.56307 3.62301 4.68191 4.00533V4.00533Z" fill="#FFB100"/>
</g>
<defs>
<clipPath id="clip0_23:4986">
<rect width="198" height="77" fill="white"/>
</clipPath>
</defs>
</svg>
